<svg width="884" height="672" viewBox="0 0 884 672" fill="none" xmlns="http://www.w3.org/2000/svg">
<path d="M67.8966 606.782C66.9579 606.782 66.4886 606.313 66.4886 605.374V604.734C66.4886 604.137 66.6593 603.497 67.0006 602.814L101.433 548.798C102.713 546.665 103.993 544.617 105.273 542.654C106.553 540.606 107.875 538.601 109.241 536.638V536.382C106.937 536.468 104.59 536.51 102.201 536.51C99.8113 536.51 97.3793 536.51 94.9046 536.51H71.8646C70.8406 536.51 70.3286 535.998 70.3286 534.974V524.478C70.3286 523.454 70.8406 522.942 71.8646 522.942H131.513C132.537 522.942 133.049 523.412 133.049 524.35V524.99C133.049 525.332 133.006 525.673 132.921 526.014C132.835 526.27 132.707 526.569 132.537 526.91L98.4886 579.646C97.0379 581.95 95.5873 584.254 94.1366 586.558C92.6859 588.777 91.1926 590.996 89.6566 593.214V593.47C92.2166 593.3 94.8193 593.214 97.4646 593.214C100.11 593.214 102.798 593.214 105.529 593.214H128.569C129.593 593.214 130.105 593.726 130.105 594.75V605.246C130.105 606.27 129.593 606.782 128.569 606.782H67.8966ZM167.239 608.318C158.023 608.318 151.111 606.313 146.503 602.302C141.895 598.206 139.591 592.148 139.591 584.126V568.254C139.591 559.721 141.852 553.278 146.375 548.926C150.983 544.489 157.895 542.27 167.111 542.27C176.156 542.27 182.983 544.404 187.591 548.67C192.199 552.937 194.503 559.166 194.503 567.358V577.342C194.503 578.366 193.991 578.878 192.967 578.878H154.567V582.718C154.567 587.412 155.548 590.868 157.511 593.086C159.559 595.22 162.844 596.286 167.367 596.286C170.865 596.286 173.553 595.732 175.431 594.622C177.393 593.513 178.375 591.849 178.375 589.63C178.375 588.606 178.887 588.094 179.911 588.094H191.687C192.625 588.094 193.137 588.564 193.223 589.502C193.479 595.646 191.345 600.34 186.823 603.582C182.385 606.74 175.857 608.318 167.239 608.318ZM154.567 568.638H179.655V567.998C179.655 563.305 178.631 559.849 176.583 557.63C174.535 555.412 171.42 554.302 167.239 554.302C162.887 554.302 159.687 555.454 157.639 557.758C155.591 559.977 154.567 563.433 154.567 568.126V568.638ZM250.73 606.782C249.706 606.782 249.194 606.27 249.194 605.246V565.822C249.194 562.238 248.468 559.593 247.018 557.886C245.567 556.18 243.348 555.326 240.362 555.326C237.375 555.326 234.431 556.222 231.53 558.014C228.714 559.721 225.471 562.409 221.802 566.078L221.29 554.942C223.764 552.297 226.239 550.036 228.714 548.158C231.274 546.281 233.919 544.83 236.65 543.806C239.38 542.782 242.367 542.27 245.61 542.27C251.754 542.27 256.404 544.02 259.562 547.518C262.719 550.932 264.298 556.222 264.298 563.39V605.246C264.298 606.27 263.786 606.782 262.762 606.782H250.73ZM210.538 606.782C209.599 606.782 209.13 606.27 209.13 605.246V559.806C209.13 557.417 209.002 554.9 208.746 552.254C208.575 549.609 208.404 547.39 208.234 545.598C208.063 544.404 208.575 543.806 209.77 543.806H220.522C221.034 543.806 221.418 543.892 221.674 544.062C221.93 544.233 222.1 544.617 222.186 545.214C222.356 545.897 222.527 546.921 222.698 548.286C222.868 549.566 223.039 550.932 223.21 552.382C223.38 553.833 223.466 555.113 223.466 556.222L224.234 561.342V605.246C224.234 606.27 223.722 606.782 222.698 606.782H210.538ZM283.193 606.782C282.254 606.782 281.785 606.27 281.785 605.246V524.478C281.785 523.454 282.254 522.942 283.193 522.942H332.217C333.155 522.942 333.625 523.454 333.625 524.478V534.974C333.625 535.998 333.155 536.51 332.217 536.51H297.145V559.166H327.353C328.291 559.166 328.761 559.678 328.761 560.702V570.814C328.761 571.753 328.291 572.222 327.353 572.222H297.145V605.246C297.145 606.27 296.633 606.782 295.609 606.782H283.193ZM346.288 606.782C345.349 606.782 344.88 606.27 344.88 605.246V520.894C344.88 519.87 345.349 519.358 346.288 519.358H358.448C359.472 519.358 359.984 519.87 359.984 520.894V605.246C359.984 606.27 359.472 606.782 358.448 606.782H346.288ZM402.879 608.318C393.833 608.318 386.836 606.185 381.887 601.918C377.023 597.566 374.591 590.996 374.591 582.206V568.382C374.591 559.678 377.023 553.15 381.887 548.798C386.751 544.446 393.748 542.27 402.879 542.27C411.924 542.27 418.879 544.446 423.743 548.798C428.607 553.15 431.039 559.678 431.039 568.382V582.206C431.039 590.996 428.607 597.566 423.743 601.918C418.964 606.185 412.009 608.318 402.879 608.318ZM402.879 595.39C407.487 595.39 410.815 594.238 412.863 591.934C414.911 589.545 415.935 585.833 415.935 580.798V569.79C415.935 564.756 414.911 561.086 412.863 558.782C410.815 556.393 407.487 555.198 402.879 555.198C398.271 555.198 394.9 556.393 392.767 558.782C390.719 561.086 389.695 564.756 389.695 569.79V580.798C389.695 585.833 390.719 589.545 392.767 591.934C394.9 594.238 398.271 595.39 402.879 595.39ZM460.74 606.782C459.886 606.782 459.332 606.356 459.076 605.502L440.26 545.47C439.918 544.361 440.302 543.806 441.412 543.806H454.34C455.108 543.806 455.62 544.276 455.876 545.214L464.196 576.318C464.878 579.134 465.518 581.908 466.116 584.638C466.798 587.369 467.438 590.142 468.036 592.958H468.42C469.188 590.313 469.956 587.668 470.724 585.022C471.577 582.292 472.388 579.604 473.156 576.958L478.532 559.422L475.204 546.878C474.948 545.769 475.332 545.214 476.356 545.214H487.748C488.686 545.214 489.241 545.598 489.412 546.366L497.092 576.702C497.689 579.433 498.286 582.164 498.884 584.894C499.566 587.54 500.206 590.228 500.804 592.958H501.188C501.7 590.142 502.297 587.369 502.98 584.638C503.662 581.822 504.345 579.006 505.028 576.19L513.348 545.214C513.604 544.276 514.116 543.806 514.884 543.806H527.812C528.921 543.806 529.305 544.361 528.964 545.47L510.148 605.502C509.977 605.929 509.764 606.27 509.508 606.526C509.252 606.697 508.91 606.782 508.484 606.782H494.404C493.465 606.782 492.868 606.356 492.612 605.502L489.412 594.622C488.558 591.806 487.79 588.905 487.108 585.918C486.425 582.846 485.742 579.39 485.06 575.55H484.676C483.993 579.39 483.225 582.804 482.372 585.79C481.604 588.692 480.793 591.55 479.94 594.366L476.484 605.502C476.228 606.356 475.673 606.782 474.82 606.782H460.74ZM587.887 606.782C586.948 606.782 586.479 606.27 586.479 605.246V577.854L559.087 524.734C558.831 524.222 558.788 523.796 558.959 523.454C559.215 523.113 559.599 522.942 560.111 522.942H574.191C575.129 522.942 575.727 523.284 575.983 523.966L587.375 548.158C588.569 550.718 589.721 553.278 590.831 555.838C592.025 558.398 593.135 560.916 594.159 563.39H594.287C595.396 560.83 596.505 558.313 597.615 555.838C598.809 553.278 600.004 550.676 601.199 548.03L612.463 523.966C612.804 523.284 613.401 522.942 614.255 522.942H628.079C628.591 522.942 628.932 523.113 629.103 523.454C629.359 523.796 629.359 524.222 629.103 524.734L601.839 577.854V605.246C601.839 606.27 601.327 606.782 600.303 606.782H587.887ZM655.504 608.318C646.458 608.318 639.461 606.185 634.512 601.918C629.648 597.566 627.216 590.996 627.216 582.206V568.382C627.216 559.678 629.648 553.15 634.512 548.798C639.376 544.446 646.373 542.27 655.504 542.27C664.549 542.27 671.504 544.446 676.368 548.798C681.232 553.15 683.664 559.678 683.664 568.382V582.206C683.664 590.996 681.232 597.566 676.368 601.918C671.589 606.185 664.634 608.318 655.504 608.318ZM655.504 595.39C660.112 595.39 663.44 594.238 665.488 591.934C667.536 589.545 668.56 585.833 668.56 580.798V569.79C668.56 564.756 667.536 561.086 665.488 558.782C663.44 556.393 660.112 555.198 655.504 555.198C650.896 555.198 647.525 556.393 645.392 558.782C643.344 561.086 642.32 564.756 642.32 569.79V580.798C642.32 585.833 643.344 589.545 645.392 591.934C647.525 594.238 650.896 595.39 655.504 595.39ZM722.575 631.998C712.249 631.998 704.783 630.676 700.175 628.03C695.567 625.385 693.263 621.417 693.263 616.126C693.263 612.884 694.031 609.982 695.567 607.422C697.188 604.862 699.748 602.729 703.247 601.022L714.767 604.734C712.633 605.502 711.055 606.612 710.031 608.062C709.092 609.513 708.623 611.177 708.623 613.054C708.623 615.7 709.689 617.534 711.823 618.558C713.956 619.668 717.796 620.265 723.343 620.35C729.316 620.35 733.369 619.796 735.503 618.686C737.636 617.577 738.703 615.614 738.703 612.798C738.703 610.836 738.191 609.385 737.167 608.446C736.228 607.508 734.692 606.996 732.559 606.91L709.135 605.502C705.977 605.246 703.289 604.137 701.071 602.174C698.937 600.212 697.871 597.31 697.871 593.47C697.871 591.593 698.127 589.886 698.639 588.35C699.236 586.814 700.175 585.406 701.455 584.126C702.735 582.761 704.399 581.353 706.447 579.902L715.663 584.126C713.956 584.724 712.719 585.534 711.951 586.558C711.268 587.497 710.927 588.521 710.927 589.63C710.927 590.91 711.311 591.806 712.079 592.318C712.932 592.83 714.255 593.129 716.047 593.214L736.655 594.494C742.543 594.921 746.809 596.67 749.455 599.742C752.185 602.729 753.551 607.081 753.551 612.798C753.551 619.54 751.076 624.404 746.127 627.39C741.263 630.462 733.412 631.998 722.575 631.998ZM723.855 586.43C715.321 586.43 709.007 584.638 704.911 581.054C700.9 577.385 698.895 571.838 698.895 564.414C698.895 556.905 700.943 551.358 705.039 547.774C709.135 544.105 715.492 542.27 724.111 542.27C732.473 542.27 738.66 544.105 742.671 547.774C746.681 551.444 748.687 557.033 748.687 564.542C748.687 571.966 746.681 577.47 742.671 581.054C738.66 584.638 732.388 586.43 723.855 586.43ZM723.855 574.654C727.695 574.654 730.34 573.886 731.791 572.35C733.327 570.729 734.095 568.084 734.095 564.414C734.095 560.66 733.327 557.972 731.791 556.35C730.34 554.729 727.695 553.918 723.855 553.918C720.015 553.918 717.327 554.729 715.791 556.35C714.255 557.972 713.487 560.66 713.487 564.414C713.487 568.084 714.255 570.729 715.791 572.35C717.327 573.886 720.015 574.654 723.855 574.654ZM740.751 549.31L729.871 545.086C730.127 541.588 730.425 538.516 730.767 535.87C731.193 533.14 731.577 530.793 731.919 528.83C732.175 527.806 732.687 527.294 733.455 527.294H743.695C744.889 527.294 745.316 527.849 744.975 528.958C744.036 531.774 743.225 534.761 742.543 537.918C741.945 540.99 741.348 544.788 740.751 549.31ZM800.372 606.782C799.86 606.782 799.476 606.654 799.22 606.398C799.049 606.057 798.878 605.63 798.708 605.118C798.537 604.265 798.324 602.814 798.068 600.766C797.812 598.633 797.598 596.67 797.428 594.878L796.532 589.63V564.03C796.532 560.446 795.806 557.929 794.356 556.478C792.905 554.942 790.388 554.174 786.804 554.174C780.318 554.174 777.161 556.521 777.332 561.214C777.332 562.238 776.862 562.75 775.924 562.75H764.404C763.38 562.75 762.825 561.982 762.74 560.446C762.228 554.729 764.148 550.292 768.5 547.134C772.937 543.892 779.252 542.27 787.444 542.27C795.806 542.27 801.908 544.062 805.748 547.646C809.673 551.23 811.636 556.777 811.636 564.286V590.91C811.636 593.641 811.678 596.201 811.764 598.59C811.934 600.98 812.148 603.156 812.404 605.118C812.574 606.228 812.105 606.782 810.996 606.782H800.372ZM775.924 608.318C770.804 608.318 766.878 606.782 764.148 603.71C761.417 600.638 760.052 596.244 760.052 590.526C760.052 586.089 760.905 582.505 762.612 579.774C764.318 576.958 767.092 574.782 770.932 573.246C774.857 571.625 780.062 570.558 786.548 570.046L798.452 569.022V578.238L787.828 579.134C782.878 579.561 779.465 580.5 777.588 581.95C775.71 583.401 774.772 585.748 774.772 588.99C774.772 591.465 775.284 593.342 776.308 594.622C777.332 595.817 778.91 596.414 781.044 596.414C783.604 596.414 786.206 595.604 788.852 593.982C791.497 592.276 794.825 589.289 798.836 585.022L799.348 595.262C796.788 598.078 794.27 600.468 791.796 602.43C789.321 604.393 786.804 605.844 784.244 606.782C781.684 607.806 778.91 608.318 775.924 608.318Z" fill="white"/>
<path d="M554.239 122.876C553.846 123.333 553.452 123.791 552.959 124.417C552.775 124.651 552.713 124.733 552.675 124.833C552.164 125.298 551.652 125.763 551.023 126.386C550.82 126.608 550.758 126.69 550.72 126.79C549.584 127.715 548.397 128.587 547.337 129.593C546.899 130.008 546.732 130.711 546.442 131.282C546.992 131.502 547.528 131.862 548.095 131.921C554.144 132.548 559.976 133.948 565.421 136.727C567.038 137.553 568.625 138.444 570.175 139.39C570.792 139.766 571.27 140.37 571.811 140.87C571.711 141.025 571.612 141.179 571.512 141.333C570.703 141.128 569.754 141.128 569.108 140.684C564.725 137.676 559.757 135.851 554.652 135.236C549.067 134.564 543.337 135.179 537.676 135.031C533.324 134.916 529.285 136.199 525.251 137.451C519.613 139.201 514.418 141.973 509.366 144.993C508.24 145.666 507.241 146.552 506.058 147.508C505.847 147.74 505.785 147.822 505.747 147.922C504.149 149.657 501.597 150.56 500.892 153.522C503.679 153.173 506.224 152.686 508.786 152.576C512.251 152.427 515.754 152.309 519.191 152.663C522.095 152.962 524.963 153.832 527.777 154.68C529.536 155.21 531.167 156.168 533.026 157.062C533.262 157.275 533.344 157.337 533.444 157.375C542.201 162.577 548.06 170.064 550.974 179.981C550.654 180.28 550.46 180.376 550.267 180.473C549.131 178.836 547.799 177.299 546.9 175.541C544.942 171.709 541.802 168.934 538.767 166.09C536.763 164.213 534.545 162.504 532.219 161.047C528.375 158.641 524.291 156.636 519.609 156.623C516.258 156.614 512.851 156.539 509.572 157.099C507.318 157.484 505.228 158.879 503.09 159.878C502.134 160.324 501.241 160.905 500.193 161.595C499.981 161.828 499.919 161.91 499.881 162.01C498.332 163.123 496.782 164.236 495.108 165.513C494.897 165.741 494.836 165.823 494.797 165.923C494.391 166.465 493.985 167.007 493.139 168.137C494.398 168.052 495.201 168.168 495.871 167.924C498.683 166.898 501.505 166.069 504.531 166.464C504.641 166.65 504.751 166.836 504.862 167.022C504.131 167.462 503.452 168.074 502.66 168.314C498.571 169.556 494.695 171.151 491.24 173.771C489.734 174.912 488.54 176.026 487.787 177.853C486.071 182.014 484.255 186.158 482.122 190.116C478.662 196.538 477.216 203.635 474.844 210.42C474.536 211.302 474.282 212.243 473.777 213.008C470.204 218.423 467.621 224.125 466.913 230.732C466.532 234.296 464.966 237.726 464.025 241.24C462.89 245.483 461.911 249.767 460.753 254.003C459.58 258.3 459.253 262.686 459.258 267.098C459.26 267.995 459.724 269.068 460.321 269.76C464.165 274.209 468.693 277.971 473.641 281.029C477.374 283.336 481.634 284.827 485.741 286.477C490.305 288.312 495.075 289.663 499.552 291.677C506.906 294.983 514.263 298.354 521.296 302.278C525.878 304.834 530.15 308.029 533.263 312.578C536.7 317.601 534.495 321.119 529.982 323.375C527.079 324.826 524.132 325.296 520.986 325.271C516.163 325.234 511.338 325.363 506.519 325.234C501.43 325.097 496.341 324.836 491.265 324.452C485.915 324.048 480.591 323.276 475.239 322.957C469.744 322.628 464.227 322.63 458.719 322.533C456.395 322.492 455.163 324.246 454.212 325.907C451.619 330.436 450.069 335.338 448.928 340.465C448.059 344.369 448.046 348.95 444.988 351.818C442.871 353.804 443.428 355.419 443.825 357.467C444.928 363.17 446.348 368.84 446.988 374.596C447.671 380.745 447.877 386.982 447.778 393.172C447.701 397.934 446.629 402.671 446.368 407.44C446.104 412.246 446.059 417.091 446.371 421.89C446.569 424.934 447.454 427.964 448.279 430.93C449.51 435.353 450.087 439.822 449.811 444.394C449.598 447.92 449.464 451.463 448.984 454.956C448.583 457.872 447.862 460.764 447.017 463.587C446.674 464.734 445.626 465.669 445.014 466.813C444.072 466.925 443.016 466.925 441.784 466.925C441.545 466.687 441.555 466.31 441.408 466.234C439.654 465.321 437.64 464.738 436.163 463.505C434.035 461.729 432.107 459.63 430.443 457.408C428.94 455.402 428.933 452.933 429.993 450.649C431.464 447.478 433.089 444.379 434.646 441.249C436.436 437.65 435.86 433.775 435.622 430.047C435.377 426.217 434.548 422.407 433.757 418.634C432.78 413.974 431.624 409.35 430.457 404.733C429.69 401.698 428.719 398.715 427.923 395.687C427.047 392.35 426.203 389.002 425.476 385.631C425.194 384.325 425.212 382.943 425.195 381.595C425.158 378.596 425.035 375.588 425.222 372.601C425.452 368.911 426.15 365.245 426.284 361.556C426.372 359.105 426.073 356.574 425.513 354.181C424.241 348.747 422.638 343.391 421.291 337.974C420.031 332.909 418.849 327.821 417.775 322.714C416.516 316.724 415.104 310.74 414.35 304.679C413.876 300.874 414.33 296.919 414.665 293.057C414.955 289.727 415.458 286.382 416.248 283.137C416.984 280.116 418.128 277.18 419.266 274.275C420.695 270.621 422.315 267.042 423.813 263.415C424 262.961 424.029 262.405 423.998 261.904C423.772 258.225 423.742 254.558 422.531 250.96C421.316 247.35 420.715 243.537 419.642 239.873C418.819 237.064 417.552 234.386 416.717 231.58C415.755 228.345 415.138 225.008 414.196 221.765C413.77 220.297 413.124 218.805 412.231 217.575C408.858 212.926 407.349 207.579 405.872 202.145C404.393 196.709 401.771 191.701 399.403 186.601C397.967 183.507 396.971 180.212 395.71 177.034C394.616 174.277 392.231 172.866 389.81 171.448C385.662 169.018 381.107 167.716 376.555 166.375C376.31 166.303 376.092 166.142 375.967 165.622C379.525 166.006 383.087 166.356 386.637 166.804C387.357 166.895 388.01 167.447 388.734 167.613C389.102 167.697 389.558 167.394 389.974 167.266C389.858 166.916 389.84 166.476 389.613 166.229C385.532 161.789 380.405 158.927 374.9 156.707C373.759 156.247 372.38 156.402 371.125 156.189C370.338 156.055 369.578 155.762 368.545 155.483C368.204 155.431 368.124 155.435 368.044 155.439C363.514 156.015 358.978 156.617 354.792 158.584C353.055 159.401 351.436 160.472 349.635 161.596C349.421 161.828 349.359 161.91 349.321 162.01C347.9 163.123 346.478 164.236 344.935 165.513C344.728 165.741 344.666 165.823 344.628 165.923C341.01 169.061 337.928 172.631 335.618 176.859C334.926 178.124 334.013 179.269 333.004 180.393C332.69 180.231 332.573 180.145 332.456 180.06C333.703 176.939 334.558 173.576 336.301 170.764C338.196 167.708 340.874 165.128 343.286 162.407C347.51 157.64 353.035 154.829 358.969 153.124C364.136 151.64 369.567 151.389 374.968 152.227C377.103 152.557 379.248 152.83 381.396 153.047C381.902 153.098 382.44 152.818 383.627 152.528C381.487 150.511 379.836 148.743 377.971 147.241C374.001 144.042 369.648 141.388 364.956 139.42C359.638 137.189 354.249 135.069 348.384 134.677C344.863 134.441 341.331 133.835 337.829 133.981C333.453 134.163 329.004 134.55 324.772 135.596C321.377 136.436 318.23 138.335 315.025 139.873C313.079 140.807 311.232 141.948 309.34 142.997C309.214 142.81 309.087 142.623 308.96 142.437C311.317 140.766 313.55 138.872 316.057 137.47C322.162 134.055 328.718 131.968 335.751 131.524C336.239 131.493 337.066 131.118 337.097 130.833C337.156 130.293 336.922 129.474 336.513 129.17C333.023 126.574 330.418 123.225 327.724 119.844C323.216 114.185 320.852 107.606 318.616 100.946C317.506 97.6393 316.958 94.1432 316.156 90.7328C316.4 90.6515 316.645 90.5702 316.889 90.4889C317.484 91.9403 318.081 93.3912 318.675 94.8433C320.75 99.9153 322.586 105.104 324.99 110.015C326.345 112.784 328.44 115.275 330.554 117.565C332.835 120.036 335.425 122.259 338.079 124.334C339.787 125.67 341.792 126.678 343.773 127.597C347.557 129.353 351.388 131.018 355.26 132.569C357.695 133.544 360.282 134.14 362.729 135.091C367.211 136.831 371.705 138.566 376.066 140.579C378.923 141.898 381.689 143.515 384.25 145.344C386.72 147.108 388.872 149.319 391.169 151.326C391.626 151.725 392.109 152.094 392.806 152.661C394.139 148.378 397.053 145.712 399.858 142.814C402.613 139.968 405.617 137.513 408.811 135.297C411.355 133.533 414.233 132.251 416.967 130.762C420.542 128.814 424.103 126.842 427.705 124.947C429.029 124.25 430.438 123.708 431.831 123.153C434.743 121.994 435.221 119.366 435.723 116.761C436.404 113.225 436.977 109.667 437.727 106.145C438.669 101.726 437.76 97.5346 436.196 93.473C434.829 89.9236 433.356 86.3851 431.561 83.04C430.225 80.5499 428.341 78.3446 426.624 76.0713C425.051 73.9898 423.388 71.9755 421.737 69.955C420.916 68.951 420.031 67.9996 419.011 66.9014C418.782 66.6932 418.7 66.6314 418.601 66.5931C416.444 64.5175 414.286 62.4418 411.968 60.246C411.743 60.0405 411.661 59.9787 411.562 59.9404C409.874 58.4733 408.186 57.0062 406.519 55.3097C406.773 54.9978 407.006 54.9152 407.239 54.8326C409.509 56.5363 411.787 58.229 414.046 59.9474C415.803 61.2842 417.564 62.619 419.27 64.0191C420.552 65.0711 421.751 66.2252 423.147 67.454C423.373 67.6594 423.455 67.7212 423.554 67.7595C426.928 71.1877 430.302 74.6158 433.741 78.1093C435.09 77.5605 435.445 76.3524 435.379 74.7507C435.231 71.1556 436.119 67.727 437.38 64.3892C438.192 62.2413 438.798 59.9722 439.913 57.9925C441.811 54.6213 443.783 51.2293 446.202 48.2321C448.424 45.4791 451.275 43.2353 454.093 40.9856C454.443 41.3024 454.548 41.4008 454.654 41.4992C454.632 41.5792 454.58 41.6129 454.363 41.7713C454.193 42.0485 454.158 42.1549 454.123 42.2613C452.413 44.3023 450.65 46.3011 449.01 48.3969C447.56 50.2507 446.041 52.1003 444.924 54.1537C443.376 56.9963 442.048 59.9775 440.856 62.9905C439.028 67.6129 439.513 72.5225 439.747 77.3013C439.909 80.6063 440.942 83.8708 441.612 87.1479C442.507 91.5218 443.447 95.8865 444.331 100.262C445.017 103.657 445.614 107.07 446.317 110.461C446.606 111.855 447.067 113.213 447.553 114.956C449.005 112.756 450.24 110.776 451.583 108.871C454.532 104.691 457.522 100.539 460.526 96.3975C461.456 95.1152 462.485 93.9046 463.589 92.4993C463.795 92.273 463.857 92.191 463.895 92.0913C466.304 89.596 468.61 86.9886 471.156 84.6434C472.96 82.9823 475.117 81.7106 477.069 80.204C481.851 76.5142 487.291 74.1437 492.939 72.179C493.231 72.0773 493.568 72.1052 493.987 72.2927C494.069 72.7706 494.048 73.0288 494.028 73.2869C486.879 76.1575 480.8 80.7037 474.769 85.6809C474.562 85.9091 474.5 85.9911 474.462 86.0908C472.641 87.7645 470.629 89.275 469.037 91.1444C465.192 95.6614 461.535 100.339 457.825 104.971C457.319 105.603 456.949 106.343 456.392 107.201C456.182 107.433 456.12 107.515 456.082 107.614C455.818 108.068 455.555 108.522 455.193 109.15C455.008 109.389 454.947 109.471 454.908 109.571C453.145 112.856 451.316 116.109 449.643 119.44C448.652 121.412 449.035 122.016 450.929 122.945C456.704 125.78 462.517 128.548 468.176 131.601C471.541 133.416 474.726 135.601 477.831 137.844C479.673 139.175 481.195 140.947 482.872 142.51C484.313 143.852 485.963 145.026 487.171 146.551C488.659 148.43 489.785 150.597 491.209 152.865C491.433 152.709 492.112 152.237 492.915 151.596C493.125 151.365 493.187 151.283 493.225 151.183C494.644 150.071 496.062 148.958 497.607 147.681C497.818 147.451 497.88 147.369 497.918 147.269C502.536 143.644 507.46 140.581 513.026 138.572C520.016 136.049 526.99 133.476 533.903 130.751C541.518 127.749 548.575 123.767 553.986 117.459C556.899 114.063 559.2 110.208 560.878 106.023C562.472 102.046 564.059 98.067 565.981 94.0616C566.447 94.0567 566.582 94.0791 566.716 94.1016C565.599 98.2642 564.697 102.501 563.298 106.566C562.148 109.911 560.555 113.132 558.878 116.257C557.724 118.405 556.089 120.296 554.547 122.466C554.339 122.695 554.278 122.777 554.239 122.876ZM473.597 152.481C473.532 152.396 473.45 152.334 473.238 152.039C470.776 149.493 468.313 146.946 465.775 144.263C465.711 144.178 465.628 144.116 465.411 143.821C462.639 141.959 459.745 140.253 457.121 138.201C452.782 134.807 448.138 131.968 443.106 129.77C442.472 129.494 441.488 129.506 440.865 129.803C437.869 131.233 434.879 132.698 432.01 134.363C429.563 135.782 427.237 137.425 424.942 139.086C421.695 141.436 418.397 143.744 415.367 146.356C413.028 148.371 411.041 150.801 408.947 153.09C407.169 155.034 405.36 157.109 406.071 159.982C406.911 163.381 407.896 166.768 409.139 170.038C410.732 174.228 412.581 178.326 414.461 182.398C414.999 183.562 415.931 184.595 416.849 185.522C418.873 187.565 421.22 189.325 423.031 191.531C424.932 193.847 426.341 196.564 428.009 199.077C428.59 199.951 429.274 200.364 430.434 199.705C433.225 198.12 434.243 195.539 434.115 192.643C433.929 188.459 431.701 184.93 429.041 181.966C427.083 179.784 425.954 177.543 426.011 174.779C426.076 171.648 426.396 168.512 426.788 165.401C427.007 163.668 427.283 161.81 428.093 160.313C429.527 157.663 431.431 155.286 434.493 154.264C436.506 153.593 438.487 152.597 440.552 152.365C444.877 151.879 448.478 153.435 451.903 156.324C454.65 158.643 456.071 161.529 456.713 164.607C457.455 168.163 457.364 171.958 457.152 175.621C457.038 177.588 456.096 179.588 455.192 181.406C454.301 183.198 452.868 184.715 451.891 186.473C450.929 188.203 450 190.021 449.485 191.916C448.684 194.868 450.345 197.328 452.151 199.285C454.04 201.331 455.913 201.627 457.243 198.097C458.804 193.953 461.285 190.566 464.812 187.779C466.61 186.358 468.625 185.013 469.469 182.433C470.572 179.063 472.289 175.893 473.877 172.562C473.962 172.497 474.024 172.415 474.349 172.166C474.954 170.132 475.56 168.098 476.162 166.063C478.27 158.945 478.66 157.584 473.597 152.481ZM457.415 312.739C461.173 311.938 464.931 311.137 468.689 310.337C464.704 308.66 460.912 307.371 457.124 306.069C454.154 305.049 451.153 304.45 448.119 305.715C446.925 306.214 445.638 306.831 445.541 308.38C445.445 309.921 445.52 311.473 445.52 312.739C449.484 312.739 453.27 312.739 457.415 312.739Z" fill="#F8F8F8"/>
<path d="M612.896 176.383C608.336 175.838 603.759 175.216 599.225 174.363C597.1 173.963 594.965 173.316 593.008 172.408C591.447 171.684 589.797 170.65 588.815 169.296C587.412 167.365 586.683 164.96 585.487 162.859C583.562 159.475 584.724 155.878 584.215 151.86C586.718 153.359 588.818 154.477 590.765 155.816C593.688 157.826 596.705 159.772 599.307 162.156C601.749 164.392 603.7 167.165 605.877 169.693C606.227 170.1 606.59 170.512 607.016 170.828C607.197 170.962 607.61 170.946 607.813 170.825C607.936 170.752 607.917 170.33 607.859 170.089C607.758 169.668 607.672 169.193 607.418 168.866C605.102 165.877 602.981 162.691 600.353 160.003C596.925 156.496 593.079 153.4 589.44 150.096C589.164 149.846 589.112 149.349 588.952 148.958C593.379 148.114 597.395 149.354 601.195 150.855C603.967 151.949 606.556 153.999 607.955 156.688C609.261 159.197 609.801 162.128 610.527 164.913C611.315 167.936 611.928 171.005 612.757 173.935C612.896 174.614 612.896 175.413 612.896 176.383Z" fill="#F8F8F8"/>
<path d="M446.927 0.845093C448.091 2.57106 449.003 4.36231 450.126 6.00914C452.332 9.24409 455.029 12.201 456.845 15.6324C459.635 20.9077 458.87 26.3283 455.843 31.3509C454.581 33.4453 452.913 35.295 450.994 37.0558C450.994 32.0747 451.288 27.0711 450.91 22.1189C450.548 17.3745 449.56 12.6649 447.747 8.22519C447.527 8.24998 447.308 8.27478 447.088 8.29957C447.088 9.92136 447.004 11.5485 447.106 13.1638C447.304 16.2963 447.897 19.4311 447.8 22.5486C447.644 27.5671 447.062 32.5723 446.66 37.5832C446.395 37.7108 446.13 37.8385 445.865 37.9661C444.355 36.9085 442.623 36.0618 441.382 34.7502C438.621 31.8344 436.634 28.3574 436.022 24.3493C435.722 22.3823 435.553 20.0609 436.312 18.3339C438.067 14.3388 440.415 10.6039 442.538 6.77243C443.595 4.86536 444.688 2.97801 445.642 0.963414C445.937 0.845094 446.354 0.845094 446.927 0.845093Z" fill="#F8F8F8"/>
<path d="M271.104 171.647C271.363 171.28 271.803 171.132 271.854 170.898C272.548 167.765 273.067 164.588 273.867 161.483C275.294 155.94 278.394 151.882 284.046 149.897C287.612 148.644 291.097 147.893 294.451 148.703C290.128 152.92 285.607 157.113 281.359 161.568C279.268 163.762 277.645 166.412 275.913 168.927C275.659 169.295 275.976 170.057 276.029 170.637C276.474 170.318 277.002 170.069 277.347 169.664C278.218 168.643 278.907 167.451 279.849 166.507C282.159 164.194 284.542 161.95 286.956 159.744C288.003 158.787 289.168 157.951 290.332 157.133C292.456 155.64 294.583 154.146 296.785 152.775C297.421 152.379 298.316 152.401 299.045 152.241C300.038 158.583 298.593 164.188 294.738 169.048C293.718 170.334 292.137 171.334 290.613 172.021C288.514 172.967 286.265 173.684 284.008 174.153C280.11 174.963 276.157 175.509 272.225 176.157C271.972 176.199 271.705 176.163 271.274 176.163C271.104 174.718 271.104 173.273 271.104 171.647Z" fill="#F8F8F8"/>
<path d="M390.509 90.1828C388.762 90.6014 387.087 90.744 385.574 91.3138C384.688 91.647 384.059 92.6619 383.396 93.6386C390.825 92.0965 398.247 91.2943 405.793 91.6029C413.426 91.9151 420.954 92.7434 428.556 94.7583C425.76 99.7443 422.169 103.547 417.435 106.044C414.421 107.634 411.193 109.115 407.888 109.778C404.093 110.539 400.189 110.226 396.426 108.575C392.321 106.773 388.492 104.648 384.826 102.04C381.002 99.3193 376.775 97.1672 372.733 94.7516C372.428 94.5694 372.195 94.2669 371.979 94.0665C375.121 91.7663 378.172 89.537 381.219 87.3005C384.179 85.127 387.051 82.8186 390.123 80.8165C391.973 79.6104 394.259 79.076 396.12 77.8825C398.884 76.1102 401.861 75.9411 404.957 75.9744C410.445 76.0333 415.317 78.0327 419.754 81.0096C422.265 82.6949 424.413 84.9275 426.689 86.9539C426.924 87.1634 426.915 87.6481 427.019 88.0051C426.708 88.0523 426.396 88.1459 426.086 88.1399C419.147 88.0071 412.198 87.5645 405.275 87.8298C400.893 87.9977 396.552 89.2223 392.191 89.9597C391.684 90.0453 391.164 90.0461 390.509 90.1828Z" fill="#F8F8F8"/>
<path d="M434.426 53.7246C433.376 51.5117 432.623 49.298 431.473 47.3136C429.069 43.1615 426.7 38.9502 423.858 35.1023C421.229 31.5414 418.017 28.4082 415.027 25.1184C414.196 24.2044 413.27 23.3691 412.33 22.5663C411.938 22.2316 411.393 22.0761 410.662 22.1185C414.961 27.7603 419.761 32.9709 422.763 39.3969C425.722 45.728 429.068 51.9269 430.499 59.3862C427.661 58.907 425.121 58.7267 422.742 58.0104C420.069 57.2059 417.291 56.2905 415.009 54.7543C411.334 52.281 407.799 49.3736 406.075 45.1048C403.41 38.5015 403.767 31.5751 404.426 24.6518C404.574 23.101 404.456 21.5248 404.457 19.9603C404.459 17.812 404.457 15.6638 404.457 13.2822C407.375 14.5566 410.144 15.759 412.907 16.975C416.685 18.6376 420.505 20.2135 424.223 22.0001C430.918 25.217 436.161 30.1804 437.082 37.6592C437.758 43.1468 438.557 49.1018 435.469 54.6002C435.108 54.2992 434.825 54.0634 434.426 53.7246Z" fill="#F8F8F8"/>
<path d="M534.795 185.863C530.737 180.892 526.82 175.992 522.806 171.174C521.831 170.003 520.512 169.124 519.397 168.062C519.021 167.704 518.788 167.197 518.361 166.568C521.696 166.051 524.653 166.249 527.545 167.176C531.785 168.534 535.761 170.344 538.975 173.585C541.999 176.634 543.532 180.363 544.039 184.507C544.8 190.713 545.363 196.944 546.033 203.162C546.126 204.02 546.346 204.865 546.565 206.019C544.849 205.673 543.43 205.477 542.063 205.095C538.029 203.966 533.965 202.913 530.009 201.552C525.366 199.956 520.595 198.378 517.263 194.484C513.907 190.564 511.744 186.012 511.643 180.746C511.586 177.784 511.818 174.811 512.018 171.851C512.169 169.621 513.052 169.159 514.745 170.542C518.389 173.517 522.061 176.483 525.454 179.733C528.621 182.765 531.549 186.069 534.369 189.432C535.766 191.097 536.661 193.177 537.831 195.039C538.302 195.789 538.856 196.501 539.465 197.143C539.693 197.384 540.183 197.378 540.554 197.484C540.544 197.102 540.665 196.65 540.504 196.35C538.91 193.385 537.267 190.447 535.647 187.495C535.374 186.998 535.148 186.476 534.795 185.863Z" fill="#F8F8F8"/>
<path d="M350.178 187.63C352.21 185.338 353.999 182.998 356.112 181.002C359.334 177.96 362.749 175.119 366.144 172.267C367.549 171.088 369.114 170.1 370.961 168.769C371.373 170.863 371.822 172.438 371.973 174.04C372.441 178.998 372.1 183.893 370.023 188.496C368.114 192.727 365.21 196.063 360.91 198.087C355.039 200.851 348.748 202.261 342.544 203.969C340.837 204.439 339.197 205.152 337.309 205.832C337.563 203.451 337.763 201.515 337.977 199.58C338.626 193.687 338.858 187.707 340.059 181.928C341.142 176.714 344.266 172.591 349.151 169.824C352.164 168.117 355.195 166.738 358.595 166.284C360.802 165.99 363.047 165.97 365.347 166.049C355.987 175.153 347.599 184.763 343.214 197.225C346.262 194.61 347.805 190.908 350.178 187.63Z" fill="#F8F8F8"/>
<path d="M448.994 60.7035C449.91 55.7828 452.58 51.862 456.058 48.4283C458.491 46.0262 461.395 44.1704 464.717 43.6054C467.774 43.0854 471.026 42.9798 474.093 43.4048C479.891 44.2082 485.616 45.5306 491.377 46.6087C491.745 46.6776 492.159 46.5017 493.08 46.3564C491.819 48.1716 490.779 49.5889 489.822 51.0595C487.422 54.7445 484.977 58.4035 482.708 62.1681C480.667 65.5536 478.016 68.6423 474.633 70.217C470.714 72.0411 466.324 73.0748 461.691 72.1847C457.944 71.4649 454.419 70.3716 451.095 68.5527C450.776 68.3779 450.483 68.1537 449.891 67.7629C459.931 59.4226 470.885 53.3499 483.574 50.5568C483.563 50.3199 483.552 50.0829 483.541 49.846C482.901 49.6892 482.199 49.277 481.631 49.4158C476.885 50.5761 472.069 51.5609 467.464 53.1504C463.292 54.5902 459.352 56.7052 455.326 58.5582C453.576 59.364 451.866 60.2591 449.917 61.0292C449.462 60.8643 449.228 60.7839 448.994 60.7035Z" fill="#F8F8F8"/>
<path d="M464.988 102.48C468.287 101.122 471.396 99.5325 474.696 98.6905C481.125 97.0501 487.136 98.1938 492.023 102.955C495.684 106.521 499.073 110.366 502.643 114.03C504.068 115.493 505.652 116.8 507.322 118.324C504.353 119.464 501.852 120.379 499.388 121.382C496.385 122.604 493.514 124.324 490.404 125.068C485.693 126.194 481.057 127.837 475.911 125.939C469.447 123.554 464.957 119.294 461.567 113.562C461.285 113.086 461.16 112.516 460.976 111.985C460.325 110.112 460.465 109.974 462.389 110.014C464.994 110.068 467.617 109.845 470.204 110.07C474.06 110.406 477.879 111.182 481.736 111.492C486.71 111.893 491.089 114.179 495.761 115.527C496.435 115.721 497.136 115.818 497.915 115.578C487.318 109.035 475.684 106.03 463.355 105.156C463.157 104.027 463.157 104.027 464.988 102.48Z" fill="#F8F8F8"/>
<path d="M566.284 124.108C570.763 123.193 575.064 122.233 579.389 121.396C581.941 120.901 584.52 120.442 587.108 120.268C588.869 120.15 590.667 120.542 592.446 120.727C594.413 120.931 596.375 121.176 598.343 121.359C598.684 121.39 599.046 121.196 599.751 121.016C599.268 120.5 599.003 119.946 598.62 119.847C591.287 117.957 583.797 117.443 576.287 117.922C571.691 118.216 567.138 119.174 562.565 119.834C562.432 119.671 562.299 119.508 562.166 119.345C563.828 117.603 565.455 115.826 567.159 114.126C569.9 111.392 573.345 109.614 576.924 108.598C580.644 107.543 584.57 107.694 588.404 109.102C593.48 110.967 597.83 114.025 602.346 116.848C604.47 118.176 606.759 119.238 609.305 120.598C607.233 122.078 605.285 123.418 603.392 124.832C600.127 127.27 596.929 129.797 593.644 132.205C589.957 134.909 585.856 136.747 581.225 136.575C577.97 136.454 574.912 135.314 571.857 134.004C568.355 132.503 565.791 130.056 563.262 127.44C562.809 126.971 562.551 126.315 562.202 125.745C562.806 125.462 563.401 125.158 564.016 124.903C564.707 124.617 565.416 124.375 566.284 124.108Z" fill="#F8F8F8"/>
<path d="M382.441 78.3292C375.729 79.0466 370.182 76.4201 364.726 73.3087C361.286 71.3471 357.753 69.527 354.154 67.8794C352.879 67.296 352.92 67.2658 353.919 66.4453C357.77 63.2838 361.455 59.9152 365.377 56.8484C368.892 54.0996 372.302 50.9253 377.02 50.449C379.536 50.195 382.149 50.2244 384.646 50.6005C389.443 51.3225 393.521 53.7204 397.168 56.8512C397.711 57.3174 398.091 57.974 398.382 58.3365C392.091 58.8713 385.803 59.1825 379.582 59.9989C373.612 60.7822 367.748 62.2123 362.343 65.0423C362.318 65.2336 362.293 65.4248 362.267 65.6161C363.118 65.7762 364.035 66.2209 364.808 66.0417C366.929 65.5494 368.958 64.6418 371.085 64.1849C373.557 63.6536 376.086 63.2405 378.607 63.1121C382.113 62.9335 385.638 62.9652 389.148 63.0966C392.475 63.2212 395.792 63.5912 399.113 63.8518C400.353 63.949 400.274 64.6069 399.764 65.4163C397.488 69.0273 395.166 72.5942 391.171 74.599C388.769 75.8043 386.389 77.0529 383.973 78.2275C383.596 78.4109 383.077 78.3026 382.441 78.3292Z" fill="#F8F8F8"/>
<path d="M292.774 119.816C301.062 120.071 312.884 121.613 321.655 125.226C319.897 128.034 317.504 130.116 314.778 131.875C311.045 134.284 306.948 135.632 302.535 135.831C296.776 136.092 292.137 133.35 287.739 130.019C284.557 127.609 281.296 125.305 278.097 122.918C277.019 122.113 276.023 121.198 274.757 120.139C276.149 119.321 277.412 118.588 278.666 117.841C282.926 115.301 287.054 112.495 291.48 110.288C295.798 108.134 300.389 106.897 305.426 108.001C312.317 109.511 317.302 113.462 321.462 119.401C316.945 118.721 312.821 117.886 308.657 117.539C304.967 117.231 301.228 117.574 297.518 117.435C293.12 117.27 288.964 118.423 284.775 119.455C284.542 119.512 284.188 120.054 284.252 120.17C284.433 120.497 284.809 120.952 285.097 120.943C286.561 120.902 288.029 120.793 289.478 120.583C290.532 120.43 291.557 120.082 292.774 119.816Z" fill="#F8F8F8"/>
<path d="M576.229 98.3906C582.81 92.0279 589.665 86.3092 598.471 83.4402C598.434 83.2435 598.396 83.0469 598.359 82.8502C597.601 82.7813 596.705 82.4146 596.106 82.6909C591.629 84.7562 587.097 86.7478 582.81 89.1669C579.575 90.9927 576.678 93.4189 573.625 95.5693C573.385 95.7383 573.098 95.8405 572.674 96.0539C572.312 92.1888 573.955 89.0721 575.696 86.1281C576.797 84.2679 578.363 82.4324 580.169 81.306C582.388 79.9216 585.007 78.8259 587.577 78.4456C590.829 77.9644 594.209 78.2576 597.53 78.3519C600.232 78.4285 602.928 78.7041 605.802 78.9036C605.781 79.2753 605.888 79.8099 605.706 80.2138C603.827 84.3838 602.079 88.6273 599.943 92.6636C597.277 97.699 593.663 101.528 587.435 102.29C583.209 102.807 579.236 102.585 575.319 101.013C575.037 100.9 574.814 100.641 573.763 99.8401C574.661 99.3283 575.396 98.9092 576.229 98.3906Z" fill="#F8F8F8"/>
<path d="M279.605 82.3708C278.907 81.0376 278.299 79.8298 277.596 78.4352C278.288 78.3913 278.774 78.3456 279.261 78.3318C283.984 78.1975 288.709 78.087 293.432 77.9339C300.705 77.6981 305.69 80.9304 308.797 87.5292C310.016 90.1195 311.138 92.5746 310.937 95.5871C303.075 89.5538 295.297 83.8787 285.303 82.3999C294.549 86.4227 302.278 92.4489 309.225 99.8636C305.675 102.457 301.757 102.311 297.838 102.078C294.966 101.908 292.274 101.064 289.891 99.448C286.834 97.3746 284.845 94.397 283.343 91.0984C282.052 88.2649 280.905 85.3662 279.605 82.3708Z" fill="#F8F8F8"/>
<path d="M540.434 156.679C539.825 155.721 539.322 154.863 538.587 153.607C548.646 151.759 558.338 150.514 568.204 153.109C568.275 152.855 568.347 152.601 568.418 152.347C567.959 151.94 567.562 151.377 567.025 151.159C566.108 150.787 565.115 150.547 564.132 150.399C561.141 149.948 558.15 149.44 555.139 149.195C551.73 148.917 548.3 148.881 544.878 148.778C543.261 148.729 541.64 148.77 539.727 148.399C541.545 146.913 543.201 145.133 545.222 144.015C547.648 142.674 550.168 141.511 553.131 141.252C558.525 140.779 562.654 143.268 566.691 146.189C569.946 148.544 573.129 150.998 576.413 153.461C574.798 154.45 573.045 155.518 571.299 156.596C569.868 157.478 568.444 158.371 567.018 159.262C563.287 161.594 559.563 164.059 554.947 164C550.511 163.942 546.624 162.196 543.208 159.426C542.239 158.641 541.425 157.666 540.434 156.679Z" fill="#F8F8F8"/>
<path d="M480.254 38.7987C475.729 40.0626 471.482 39.9045 467.391 37.7909C466.623 37.3942 465.849 37.0089 465.078 36.6183C465.722 35.957 466.287 35.186 467.024 34.6522C471.454 31.4423 475.794 28.0792 480.43 25.1942C483.049 23.564 486.186 22.7741 489.064 21.5447C489.536 21.3432 489.873 20.8256 490.272 20.4541C490.169 20.2413 490.066 20.0285 489.962 19.8158C488.486 20.1827 486.982 20.4651 485.538 20.9312C479.495 22.8807 473.647 25.2573 468.411 28.9444C467.213 29.7876 465.981 30.5844 464.728 31.3431C464.401 31.5411 463.939 31.5156 463.539 31.5927C463.523 31.2704 463.397 30.9029 463.507 30.6329C464.496 28.2247 465.403 25.7714 466.574 23.4521C468.353 19.9262 471.699 18.0536 474.99 16.2961C476.145 15.6792 477.754 15.6647 479.13 15.7589C482.754 16.007 486.361 16.4991 489.981 16.8287C492.414 17.0503 494.857 17.1604 497.63 17.3423C494.185 23.067 490.86 28.7053 487.414 34.2686C485.83 36.8262 483.091 37.8078 480.254 38.7987Z" fill="#F8F8F8"/>
<path d="M309.143 151.601C312.075 149.451 314.983 147.5 317.714 145.326C321.526 142.292 325.578 140.572 330.645 140.843C335.211 141.089 338.427 143.628 341.87 145.965C342.665 146.505 343.371 147.176 343.968 148.061C334.238 148.476 324.571 147.63 315.435 151.34C315.745 152.846 317.066 152.448 317.865 152.235C322.664 150.959 327.557 150.965 332.43 151.177C335.323 151.303 338.189 152.031 341.072 152.457C341.957 152.587 342.886 152.5 343.742 152.719C344.689 152.961 345.557 153.23 344.524 154.62C342.133 157.839 339.148 160.339 335.534 161.886C331.473 163.624 327.192 164.527 323.001 162.145C319.404 160.099 315.889 157.91 312.332 155.795C310.725 154.84 309.103 153.91 307.392 152.914C308.025 152.448 308.533 152.074 309.143 151.601Z" fill="#F8F8F8"/>
<path d="M581.809 187.823C579.289 188.291 576.873 188.505 574.57 189.132C570.627 190.205 567.146 189.131 563.919 187.078C559.918 184.532 556.964 180.728 555.313 175.648C556.418 175.996 557.34 176.224 558.213 176.571C562.741 178.371 567.243 180.24 571.79 181.99C572.708 182.343 573.792 182.243 574.782 182.439C575.562 182.594 576.302 182.949 577.082 183.099C578.81 183.432 580.548 183.733 582.295 183.938C582.55 183.968 583.148 183.349 583.107 183.115C583.038 182.721 582.606 182.107 582.288 182.082C577.248 181.684 572.615 179.91 568.183 177.686C564.17 175.671 560.343 173.284 555.835 170.72C557.959 169.47 559.448 168.274 561.148 167.656C565.541 166.058 570.08 165.655 574.596 167.178C577.068 168.012 579.174 169.477 580.772 171.601C583.98 175.867 587.203 180.121 590.401 184.394C590.572 184.623 590.564 184.986 590.612 185.175C587.677 186.05 584.821 186.902 581.809 187.823Z" fill="#F8F8F8"/>
<path d="M514.181 62.5858C511.868 63.7218 509.709 64.8453 507.482 65.8126C506.375 66.2938 505.143 66.4886 503.56 66.9254C505.647 63.5689 507.55 60.7721 509.175 57.8216C510.909 54.6715 512.245 51.2991 514.013 48.1701C515.285 45.9195 515.921 43.5701 516.19 41.0665C516.224 40.7424 516.032 40.3938 515.944 40.0566C515.755 40.0069 515.565 39.9573 515.376 39.9076C514.802 41.2894 514.246 42.6785 513.651 44.0511C512.946 45.6789 512.402 47.4179 511.448 48.8879C508.957 52.7275 506.331 56.4841 503.651 60.1954C502.595 61.6577 501.304 62.9671 499.993 64.2121C499.744 64.4478 498.492 64.2046 498.386 63.9245C496.513 58.9502 495.337 54.0438 497.536 48.6786C499.485 43.9243 503.021 41.1994 507.297 39.0231C510.978 37.1498 514.663 35.2829 518.358 33.4376C518.62 33.3065 518.983 33.3759 519.269 33.3544C519.456 36.243 519.657 39.0666 519.817 41.8924C519.971 44.5964 520.111 47.3019 520.207 50.0085C520.364 54.4176 518.945 58.1514 515.457 61.0056C514.982 61.3943 514.687 62.0024 514.181 62.5858Z" fill="#F8F8F8"/>
<path d="M580.357 74.6441C578.304 77.1469 576.384 79.587 573.573 81.0755C572.978 81.3909 572.375 81.6925 571.648 82.0662C569.713 71.841 570.719 61.9927 573.504 52.2163C573.131 52.1729 572.757 52.1295 572.384 52.0861C568.131 60.934 567.032 70.4489 567.097 80.2095C566.913 80.3097 566.73 80.4098 566.547 80.51C565.237 78.733 563.563 77.1147 562.706 75.1409C561.492 72.3439 560.407 69.465 560.416 66.2231C560.426 62.7992 561.489 59.7881 563.464 57.2613C566.745 53.0618 570.41 49.1624 573.919 45.1412C574.083 44.9537 574.298 44.8107 574.689 44.4747C576.119 47.405 577.505 50.2232 578.871 53.0509C579.577 54.5136 580.16 56.0429 580.953 57.456C584.209 63.2641 583.56 68.9206 580.357 74.6441Z" fill="#F8F8F8"/>
<path d="M385.944 44.2829C382.746 43.892 379.59 43.9301 376.743 43.0109C372.243 41.5582 368.649 38.7655 367.296 33.846C366.201 29.8687 365.001 25.9198 363.957 21.9296C363.513 20.2319 363.348 18.461 363.009 16.4432C367.833 17.3616 372.573 18.1816 377.271 19.194C379.508 19.676 381.77 20.2986 383.837 21.2559C387.606 23.0016 389.473 26.4428 390.725 30.1849C391.438 32.3164 391.83 34.5593 392.297 36.7668C392.418 37.3394 392.39 38.0077 392.198 38.5495C392.126 38.7541 391.172 38.9464 390.998 38.7702C387.589 35.324 384.519 31.4744 380.788 28.435C377.383 25.6616 373.965 22.6614 369.637 21.2165C369.423 21.1454 369.147 21.2644 368.337 21.3643C369.427 22.3919 370.114 23.2818 371.007 23.8433C377.685 28.0412 382.64 33.869 386.87 40.4045C387.215 40.9378 387.668 41.4006 388.025 41.927C388.364 42.4251 388.643 42.9638 389.04 43.6415C387.916 43.8888 387.02 44.0857 385.944 44.2829Z" fill="#F8F8F8"/>
<path d="M299.294 186.329C297.086 185.778 295.043 185.235 292.858 184.654C295.792 180.539 298.445 176.458 301.487 172.693C303.159 170.622 305.379 168.931 307.564 167.366C308.677 166.569 310.265 166.05 311.63 166.066C315.079 166.106 318.581 166.228 321.944 166.901C323.793 167.271 325.406 168.82 327.53 170.077C325.716 171.248 324.297 172.174 322.868 173.083C318.571 175.816 314.18 178.469 309.198 179.632C306.59 180.241 304.328 182.142 301.432 181.701C301.164 181.66 300.777 182.405 300.445 182.785C300.906 183.042 301.434 183.596 301.818 183.509C307.256 182.28 312.755 181.222 318.07 179.574C321.486 178.515 324.623 176.557 328.223 174.841C328.02 175.922 328.104 176.953 327.65 177.619C326.117 179.872 324.538 182.127 322.712 184.142C318.923 188.325 314.133 189.511 308.682 188.312C305.611 187.637 302.533 186.994 299.294 186.329Z" fill="#F8F8F8"/>
<path d="M312.839 54.9712C312.2 53.6483 311.653 52.451 311.107 51.2537C310.806 51.343 310.506 51.4323 310.205 51.5215C310.478 53.0581 310.725 54.5998 311.029 56.1301C311.518 58.5968 312.254 61.035 312.505 63.5237C312.843 66.8623 312.946 70.2392 312.904 73.5967C312.875 75.8761 312.445 78.153 312.145 80.4244C312.094 80.8059 311.788 81.1535 311.294 82.1084C308.447 79.2086 305.469 76.8504 303.407 73.8603C301.775 71.4956 300.648 68.7024 300.703 65.3963C300.82 58.3507 304.996 53.0418 307.644 47.0732C308.046 46.1661 308.565 45.3107 308.446 45.0933C310.583 46.8311 312.888 48.4032 314.814 50.351C316.96 52.5225 318.925 54.9213 320.677 57.426C323.434 61.3688 323.726 65.8392 322.58 70.3861C321.642 74.1084 319.769 77.3393 316.636 79.9426C317.043 71.3692 315.79 63.1074 312.839 54.9712Z" fill="#F8F8F8"/>
<path d="M487.886 89.0019C491.418 88.2523 494.806 87.5309 498.219 86.9638C500.155 86.6421 502.133 86.573 504.244 86.3759C503.628 85.1136 502.843 84.55 501.402 84.5559C496.15 84.5774 490.962 84.8799 485.894 86.4632C484.444 86.9162 482.84 86.8751 480.852 87.1155C481.313 86.4571 481.751 85.9378 482.073 85.3545C484.072 81.7332 487.6 80.0646 491.192 78.9018C492.964 78.3283 495.325 78.7895 497.186 79.446C500.768 80.7101 504.183 82.4504 507.671 83.9834C508.724 84.4459 509.791 84.8759 510.045 84.8688C508.266 87.0119 506.651 89.3233 504.667 91.2548C502.275 93.5832 499.808 95.8394 496.443 96.9392C493.794 97.805 491.185 97.7352 488.751 96.9423C486.154 96.0961 483.411 95.1704 481.584 92.8265C481.047 92.1366 480.556 91.6084 481.932 91.2009C483.907 90.616 485.815 89.8077 487.886 89.0019Z" fill="#F8F8F8"/>
<path d="M568.355 197.82C569.127 201.234 568.913 204.521 568.531 207.779C568.244 210.227 567.659 212.639 567.161 215.312C566.718 215.118 566.049 214.886 565.439 214.548C563.576 213.515 561.818 212.246 559.87 211.42C554.872 209.299 550.957 203.242 551.552 197.815C551.768 195.849 552.517 193.922 553.203 192.043C553.318 191.729 554.757 191.459 554.9 191.659C557.092 194.731 559.324 197.794 561.226 201.047C562.683 203.54 563.689 206.296 565.079 208.859C564.4 201.903 561.183 195.921 557.575 189.678C562.477 191.015 566.09 193.395 568.355 197.82Z" fill="#F8F8F8"/>
<path d="M315.952 196.427C317.335 194.911 318.442 193.279 319.937 192.168C321.623 190.915 323.657 190.132 325.709 189.401C322.062 195.279 319.741 201.476 318.235 207.993C318.475 208.11 318.714 208.226 318.954 208.343C319.429 207.329 320.018 206.352 320.359 205.295C322.094 199.908 325.662 195.622 328.803 191.081C328.947 190.874 329.35 190.847 329.634 190.736C334.188 197.569 332.457 205.774 325.272 209.792C322.38 211.409 319.581 213.191 316.217 215.211C315.762 209.789 315.27 204.686 314.957 199.572C314.896 198.583 315.532 197.551 315.952 196.427Z" fill="#F8F8F8"/>
<path d="M551.59 81.7453C550.826 80.8083 550.16 79.9744 549.495 79.1404C549.272 79.2718 549.048 79.4033 548.824 79.5347C549.662 81.1012 550.43 82.7098 551.351 84.2253C553.315 87.4566 554.662 90.8978 555.457 94.6028C555.789 96.1547 556.593 97.6055 557.269 99.3213C554.467 99.85 552.369 98.4561 550.504 97.3982C548.555 96.2921 546.881 94.3867 545.603 92.4834C543.792 89.7875 544.371 86.5114 544.518 83.477C544.665 80.4502 545.281 77.4462 545.698 74.3872C547.38 75.2395 549.002 75.9268 550.483 76.8418C553.061 78.4341 555.76 79.931 558.017 81.9139C559.899 83.5677 561.488 85.6755 561.308 88.5906C561.151 91.1308 561.275 93.6885 561.275 96.003C559.199 96.8356 559.234 95.5073 558.957 94.7483C557.239 90.0462 554.916 85.6949 551.59 81.7453Z" fill="#F8F8F8"/>
<path d="M549.671 104.073C551.235 108.121 551.101 111.998 549.404 115.836C547.875 112.684 546.575 109.429 544.783 106.472C543.055 103.619 541.725 100.298 538.312 98.7452C541.795 104.856 544.925 111.041 546.134 118.709C543.832 117.812 541.854 117.174 539.996 116.284C537.372 115.027 535.355 112.957 534.458 110.231C533.778 108.167 533.539 105.855 533.611 103.67C533.706 100.827 534.295 97.9994 534.69 95.168C534.764 94.6368 534.928 94.1181 535.09 93.4224C537.459 94.6788 539.639 95.7794 541.762 96.979C543.338 97.8691 544.86 98.8586 546.371 99.8571C547.885 100.858 549.163 102.073 549.671 104.073Z" fill="#F8F8F8"/>
<path d="M332.63 76.8646C334.398 75.8817 336.044 74.9855 337.931 73.9584C338.474 77.9617 339.354 81.8814 339.468 85.8232C339.695 93.6858 333.704 97.8636 327.007 99.0629C328.205 91.857 330.857 85.3458 335.157 79.4685C334.946 79.2933 334.734 79.1181 334.523 78.9428C333.792 79.5147 332.907 79.9676 332.355 80.6789C329.758 84.0258 327.349 87.4997 325.844 91.5134C325.364 92.7939 324.823 94.0522 324.281 95.3084C324.178 95.5469 323.954 95.8769 323.762 95.8938C323.557 95.9117 323.214 95.6535 323.124 95.4362C322.815 94.6882 322.435 93.9185 322.368 93.1328C322.248 91.7087 322.362 90.2665 322.329 88.8329C322.248 85.3014 323.843 82.5829 326.581 80.5762C328.443 79.212 330.525 78.1489 332.63 76.8646Z" fill="#F8F8F8"/>
<path d="M334.922 101.933C336.969 98.9889 340.025 97.6434 342.863 96.0253C344.59 95.0403 346.403 94.2058 348.55 93.114C348.683 93.9408 348.79 94.7386 348.941 95.5281C349.741 99.7264 350.565 103.95 349.653 108.208C349.328 109.729 348.611 111.303 347.655 112.525C345.505 115.273 341.51 117.807 337.486 117.706C338.938 110.77 341.95 104.532 345.77 98.3703C342.767 98.671 337.352 107.133 334.618 115.083C332.371 113.456 332.503 104.999 334.922 101.933Z" fill="#F8F8F8"/>
<path d="M508.089 184.989C507.118 190.173 503.17 192.207 499.132 194.156C497.342 195.02 495.562 195.902 493.558 196.882C493.367 195.39 493.074 193.98 493.027 192.561C492.897 188.567 491.452 184.48 493.969 180.658C495.353 178.555 497.045 176.915 499.416 176.015C500.896 175.454 502.369 174.871 504.341 174.104C503.782 178.025 502.733 181.126 501.187 184.029C499.672 186.874 497.948 189.607 496.57 192.552C501.661 188.466 504.278 182.689 507.111 176.784C508.72 179.471 507.853 182.212 508.089 184.989Z" fill="#F8F8F8"/>
<path d="M379.128 181.883C380.694 184.411 382.123 186.848 383.692 189.191C384.517 190.423 385.586 191.492 386.544 192.634C386.814 192.418 387.084 192.203 387.354 191.987C385.758 189.187 383.984 186.471 382.616 183.564C381.245 180.653 380.28 177.551 379.034 174.26C382.087 174.082 384.271 175.357 386.25 176.635C390.552 179.415 391.765 183.501 390.85 188.528C390.41 190.946 390.775 193.511 390.775 196.622C388.062 195.352 385.954 194.497 383.978 193.403C382.05 192.336 380.108 191.2 378.443 189.776C376.621 188.217 375.505 186.097 375.527 183.578C375.547 181.194 375.096 178.724 376.776 176.41C377.561 178.255 378.305 180.004 379.128 181.883Z" fill="#F8F8F8"/>
<path d="M444.733 83.3754C443.082 80.2748 443.531 76.4616 446.032 73.4253C449.474 77.76 452.597 82.1572 454.395 87.8521C454.612 87.2645 455.135 86.5902 454.998 86.1027C453.82 81.9296 452.802 77.6753 449.925 74.2122C449.604 73.8268 449.605 73.1743 449.369 72.3325C451.988 73.0926 454.072 74.2431 455.651 76.2212C457.748 78.8506 457.986 81.7909 457.313 85.0117C456.909 86.9406 456.932 88.9704 456.882 90.9579C456.848 92.2949 456.102 92.5301 455.224 91.9888C452.122 90.0775 449.047 88.1119 446.079 86.0014C445.395 85.5154 445.179 84.3713 444.733 83.3754Z" fill="#F8F8F8"/>
<path d="M500.286 71.3298C498.838 72.5785 497.142 72.4585 495.396 72.2079C496.543 70.6184 498.387 70.9436 500.107 70.6649C500.276 70.9913 500.281 71.1606 500.286 71.3298Z" fill="#F8F8F8"/>
<path d="M500.449 71.308C500.28 71.1596 500.275 70.9903 500.27 70.694C502.2 70.2527 504.133 69.9384 506.065 69.6241C506.097 69.8504 506.129 70.0767 506.162 70.303C504.312 70.6311 502.462 70.9591 500.449 71.308Z" fill="#F8F8F8"/>
<path d="M566.841 94.0279C566.582 94.0767 566.447 94.0543 566.11 94.004C566.198 92.775 566.488 91.5739 566.778 90.3728C567.01 90.4204 567.242 90.4681 567.475 90.5157C567.305 91.6627 567.136 92.8097 566.841 94.0279Z" fill="#F8F8F8"/>
<path d="M407.18 54.7006C407.007 54.9139 406.773 54.9965 406.472 55.1853C405.754 54.7242 405.106 54.1567 404.511 53.3719C404.607 53.0982 404.649 53.0419 404.691 52.9855C405.5 53.5136 406.31 54.0418 407.18 54.7006Z" fill="#F8F8F8"/>
<path d="M506.542 166.815C505.917 167.097 505.292 167.379 504.667 167.66C504.738 166.277 505.085 165.543 506.382 166.464C506.533 166.63 506.542 166.815 506.542 166.815Z" fill="#F8F8F8"/>
<path d="M404.496 53.2332C403.631 52.8097 402.834 52.3065 402.038 51.8032C402.147 51.6288 402.257 51.4544 402.366 51.28C403.084 51.7824 403.801 52.2847 404.605 52.8857C404.649 53.0408 404.607 53.0971 404.496 53.2332Z" fill="#F8F8F8"/>
<path d="M550.294 180.619C550.46 180.376 550.654 180.28 550.945 180.134C551.296 180.689 551.55 181.293 551.805 181.898C551.653 182.001 551.501 182.105 551.35 182.208C551.007 181.727 550.665 181.246 550.294 180.619Z" fill="#F8F8F8"/>
<path d="M332.325 180.123C332.574 180.145 332.69 180.231 332.859 180.413C332.712 181.054 332.512 181.598 332.313 182.143C332.14 182.088 331.967 182.034 331.794 181.98C331.927 181.382 332.061 180.784 332.325 180.123Z" fill="#F8F8F8"/>
<path d="M448.874 60.752C449.228 60.7838 449.462 60.8642 449.768 61.0488C449.513 61.5273 449.185 61.9015 448.858 62.2758C448.725 62.2289 448.591 62.182 448.458 62.1351C448.556 61.6902 448.655 61.2453 448.874 60.752Z" fill="#F8F8F8"/>
<path d="M574.694 142.994C574.036 143.001 573.25 142.914 572.463 142.827C572.557 142.548 572.65 142.268 572.743 141.988C573.351 142.292 573.958 142.596 574.694 142.994Z" fill="#F8F8F8"/>
<path d="M494.201 73.2652C494.049 73.0284 494.07 72.7704 494.133 72.3229C494.594 72.2533 495.013 72.3732 495.432 72.493C495.079 72.7434 494.726 72.9937 494.201 73.2652Z" fill="#F8F8F8"/>
<path d="M454.762 41.4464C454.549 41.4001 454.443 41.3018 454.232 41.0148C454.485 40.7162 454.844 40.6063 455.204 40.4965C455.092 40.7958 454.981 41.0951 454.762 41.4464Z" fill="#F8F8F8"/>
<path d="M506.69 166.795C506.543 166.815 506.533 166.63 506.53 166.537C506.854 166.308 507.182 166.171 507.509 166.034C507.563 166.2 507.617 166.365 507.671 166.531C507.393 166.612 507.115 166.693 506.69 166.795Z" fill="#F8F8F8"/>
<path d="M411.542 60.0445C411.661 59.9786 411.743 60.0403 411.844 60.1939C411.762 60.2245 411.643 60.1866 411.542 60.0445Z" fill="#F8F8F8"/>
<path d="M505.852 147.941C505.786 147.822 505.848 147.74 506.002 147.639C506.032 147.721 505.994 147.841 505.852 147.941Z" fill="#F8F8F8"/>
<path d="M418.582 66.6974C418.701 66.6315 418.783 66.6933 418.884 66.8469C418.802 66.8775 418.682 66.8396 418.582 66.6974Z" fill="#F8F8F8"/>
<path d="M423.574 67.6552C423.455 67.7211 423.373 67.6593 423.272 67.5057C423.354 67.4751 423.474 67.513 423.574 67.6552Z" fill="#F8F8F8"/>
<path d="M474.566 86.1099C474.501 85.9911 474.562 85.9092 474.716 85.808C474.746 85.8905 474.709 86.0098 474.566 86.1099Z" fill="#F8F8F8"/>
<path d="M463.791 92.0719C463.857 92.1907 463.796 92.2727 463.642 92.3739C463.611 92.2914 463.649 92.1721 463.791 92.0719Z" fill="#F8F8F8"/>
<path d="M456.186 107.633C456.12 107.514 456.182 107.433 456.336 107.331C456.366 107.414 456.328 107.533 456.186 107.633Z" fill="#F8F8F8"/>
<path d="M455.013 109.59C454.948 109.471 455.009 109.389 455.163 109.288C455.194 109.37 455.156 109.49 455.013 109.59Z" fill="#F8F8F8"/>
<path d="M454.237 42.2746C454.159 42.1547 454.194 42.0484 454.332 41.8077C454.407 41.8783 454.379 42.0832 454.237 42.2746Z" fill="#F8F8F8"/>
<path d="M554.344 122.895C554.278 122.776 554.339 122.694 554.493 122.593C554.524 122.676 554.486 122.795 554.344 122.895Z" fill="#F8F8F8"/>
<path d="M552.779 124.852C552.713 124.733 552.775 124.651 552.929 124.55C552.959 124.632 552.921 124.752 552.779 124.852Z" fill="#F8F8F8"/>
<path d="M550.824 126.809C550.758 126.69 550.82 126.608 550.974 126.507C551.004 126.589 550.966 126.709 550.824 126.809Z" fill="#F8F8F8"/>
<path d="M494.901 165.942C494.836 165.823 494.897 165.741 495.051 165.64C495.081 165.723 495.044 165.842 494.901 165.942Z" fill="#F8F8F8"/>
<path d="M344.733 165.942C344.667 165.823 344.729 165.741 344.882 165.64C344.913 165.723 344.875 165.842 344.733 165.942Z" fill="#F8F8F8"/>
<path d="M499.986 162.029C499.92 161.91 499.981 161.828 500.135 161.727C500.166 161.809 500.128 161.929 499.986 162.029Z" fill="#F8F8F8"/>
<path d="M349.425 162.029C349.359 161.91 349.421 161.828 349.575 161.727C349.605 161.809 349.567 161.929 349.425 162.029Z" fill="#F8F8F8"/>
<path d="M533.464 157.271C533.345 157.337 533.263 157.275 533.162 157.122C533.244 157.091 533.363 157.129 533.464 157.271Z" fill="#F8F8F8"/>
<path d="M572.323 141.823C572.434 141.843 572.447 141.96 572.46 142.078C572.382 142.025 572.303 141.973 572.323 141.823Z" fill="#F8F8F8"/>
<path d="M368.08 155.544C368.124 155.435 368.204 155.431 368.404 155.433C368.388 155.509 368.252 155.578 368.08 155.544Z" fill="#F8F8F8"/>
<path d="M493.122 151.164C493.188 151.282 493.126 151.364 492.972 151.466C492.942 151.383 492.98 151.264 493.122 151.164Z" fill="#F8F8F8"/>
<path d="M497.814 147.251C497.88 147.369 497.818 147.451 497.665 147.553C497.634 147.47 497.672 147.351 497.814 147.251Z" fill="#F8F8F8"/>
<path d="M473.809 172.599C473.779 172.517 473.816 172.397 473.958 172.296C474.024 172.415 473.963 172.497 473.809 172.599Z" fill="#F8F8F8"/>
<path d="M473.634 152.549C473.552 152.58 473.432 152.543 473.331 152.4C473.45 152.334 473.532 152.396 473.634 152.549Z" fill="#F8F8F8"/>
<path d="M465.814 144.332C465.731 144.362 465.611 144.325 465.51 144.182C465.629 144.116 465.711 144.178 465.814 144.332Z" fill="#F8F8F8"/>
</svg>
