<svg width="145" height="145" viewBox="0 0 145 145" fill="none" xmlns="http://www.w3.org/2000/svg">
<path fill-rule="evenodd" clip-rule="evenodd" d="M54.0246 50.1825L54.4719 50.5733L94.4268 90.5235C94.9504 91.0466 95.3434 91.6859 95.5737 92.3893C95.8041 93.0928 95.8653 93.8406 95.7525 94.5722C95.6397 95.3037 95.3559 95.9984 94.9244 96.5997C94.4928 97.2011 93.9255 97.6922 93.2685 98.0333L92.7224 98.2687L43.8263 116.288C34.6356 119.678 25.6851 111.038 28.4772 101.861L28.7126 101.174L46.7267 52.273C46.9653 51.6257 47.3433 51.0387 47.8339 50.5537C48.3244 50.0686 48.9156 49.6973 49.5656 49.466C50.2155 49.2346 50.9084 49.149 51.5951 49.215C52.2818 49.2811 52.9457 49.4972 53.5396 49.8482L54.0246 50.1778V50.1825ZM53.017 62.4336L37.5501 104.432C37.4063 104.823 37.3687 105.245 37.4412 105.655C37.5136 106.065 37.6935 106.448 37.9625 106.766C38.2315 107.084 38.5799 107.324 38.9724 107.464C39.3648 107.603 39.7871 107.636 40.1962 107.558L40.5729 107.45L82.5618 91.9784L53.017 62.4336ZM96.5455 70.6355C100.835 70.8615 106.716 71.7655 111.829 74.8353C112.865 75.4499 113.627 76.4385 113.956 77.5976C114.286 78.7567 114.159 79.9981 113.601 81.0661C113.042 82.1342 112.096 82.9475 110.956 83.3387C109.816 83.7299 108.57 83.6692 107.474 83.1691L106.984 82.9101C103.773 80.9797 99.6672 80.2264 96.0512 80.038C94.5612 79.9518 93.0674 79.9581 91.5782 80.0569L90.0904 80.2028C88.8622 80.3613 87.6209 80.0295 86.6356 79.2793C85.6503 78.5291 85.0002 77.4209 84.8262 76.1948C84.6522 74.9687 84.9682 73.7233 85.7059 72.7286C86.4436 71.7339 87.5435 71.0698 88.7674 70.8803C91.346 70.5472 93.9508 70.4637 96.5455 70.6308V70.6355ZM106.08 57.5181C107.28 57.5206 108.433 57.9809 109.305 58.8051C110.176 59.6293 110.701 60.7552 110.77 61.9528C110.84 63.1505 110.45 64.3295 109.68 65.2493C108.91 66.1691 107.817 66.7601 106.626 66.9018L106.08 66.9348H102.746C101.547 66.9322 100.393 66.4719 99.5216 65.6477C98.6498 64.8235 98.1256 63.6976 98.0559 62.5C97.9862 61.3024 98.3763 60.1233 99.1465 59.2035C99.9167 58.2838 101.009 57.6927 102.2 57.551L102.746 57.5181H106.08ZM91.098 53.9021C91.9086 54.7128 92.3956 55.7915 92.4676 56.9358C92.5395 58.08 92.1915 59.2112 91.4888 60.1171L91.098 60.5597L86.1072 65.5552C85.2618 66.4086 84.1223 66.9067 82.9217 66.9474C81.7212 66.9881 80.5505 66.5685 79.6493 65.7743C78.7481 64.9802 78.1844 63.8716 78.0738 62.6755C77.9631 61.4794 78.3138 60.2862 79.0541 59.3402L79.4449 58.8976L84.4357 53.9068C84.873 53.469 85.3922 53.1217 85.9638 52.8848C86.5354 52.6479 87.1481 52.5259 87.7668 52.5259C88.3856 52.5259 88.9983 52.6479 89.5699 52.8848C90.1414 53.1217 90.6607 53.4643 91.098 53.9021ZM78.9175 29.108C81.0269 35.4454 79.8969 42.3855 78.5785 47.2351C77.7862 50.2585 76.698 53.1966 75.3298 56.0067C74.7722 57.1243 73.7935 57.9747 72.609 58.3707C71.4245 58.7667 70.1312 58.676 69.0135 58.1184C67.8959 57.5608 67.0456 56.5821 66.6496 55.3976C66.2536 54.2131 66.3443 52.9198 66.9019 51.8022C67.9937 49.5448 68.861 47.1855 69.4914 44.7585C70.5602 40.8412 71.097 36.5895 70.273 33.1054L69.9858 32.0884C69.7806 31.4995 69.6944 30.8758 69.7323 30.2534C69.7701 29.631 69.9312 29.0223 70.2062 28.4627C70.4811 27.903 70.8646 27.4036 71.3341 26.9933C71.8037 26.583 72.3501 26.2701 72.9416 26.0728C73.5331 25.8754 74.1579 25.7975 74.7798 25.8436C75.4016 25.8896 76.0081 26.0588 76.5641 26.3411C77.12 26.6235 77.6144 27.0135 78.0184 27.4885C78.4224 27.9634 78.728 28.5139 78.9175 29.108ZM104.413 40.5869C105.296 41.4699 105.792 42.6672 105.792 43.9157C105.792 45.1642 105.296 46.3616 104.413 47.2445L101.084 50.5733C100.65 51.023 100.13 51.3817 99.5561 51.6284C98.9816 51.8752 98.3638 52.0051 97.7386 52.0105C97.1135 52.0159 96.4935 51.8968 95.9148 51.6601C95.3362 51.4233 94.8105 51.0737 94.3684 50.6317C93.9263 50.1896 93.5767 49.6639 93.34 49.0852C93.1032 48.5066 92.9841 47.8866 92.9896 47.2614C92.995 46.6363 93.1249 46.0184 93.3716 45.444C93.6184 44.8696 93.9771 44.35 94.4268 43.9157L97.7556 40.5869C98.6385 39.7042 99.8359 39.2084 101.084 39.2084C102.333 39.2084 103.53 39.7042 104.413 40.5869Z" fill="white"/>
<rect x="4" y="4" width="137" height="137" rx="68.5" stroke="white" stroke-width="8"/>
</svg>
